<svg xmlns="http://www.w3.org/2000/svg" xmlns:xlink="http://www.w3.org/1999/xlink" width="850" height="581.04"><rect width="850" height="581.04" rx="5" ry="5" class="a"/><svg y="0%" x="0%"><circle cx="20" cy="20" r="6" fill="#ff5f58"/><circle cx="40" cy="20" r="6" fill="#ffbd2e"/><circle cx="60" cy="20" r="6" fill="#18c132"/></svg><svg height="521.04" viewBox="0 0 81 52.104" width="810" x="15" xmlns="http://www.w3.org/2000/svg" xmlns:xlink="http://www.w3.org/1999/xlink" y="50"><style>@keyframes p{0%{transform:translateX(0)}1.7%{transform:translateX(-81px)}1.98%{transform:translateX(-324px)}1.99%{transform:translateX(-405px)}2%{transform:translateX(-486px)}7.8%{transform:translateX(-567px)}9.31%{transform:translateX(-648px)}10.46%{transform:translateX(-729px)}10.94%{transform:translateX(-810px)}12%{transform:translateX(-891px)}13.36%{transform:translateX(-972px)}14.74%{transform:translateX(-1053px)}14.76%{transform:translateX(-1134px)}14.79%{transform:translateX(-1215px)}23.77%{transform:translateX(-1296px)}32.34%{transform:translateX(-1377px)}34.14%{transform:translateX(-1458px)}35.87%{transform:translateX(-1539px)}37.48%{transform:translateX(-1620px)}38.39%{transform:translateX(-1701px)}40.3%{transform:translateX(-1782px)}42.03%{transform:translateX(-2025px)}48.36%{transform:translateX(-2187px)}48.37%{transform:translateX(-2268px)}57.4%{transform:translateX(-2430px)}57.41%{transform:translateX(-2511px)}61.94%{transform:translateX(-2673px)}66.06%{transform:translateX(-2754px)}66.07%{transform:translateX(-2835px)}66.09%{transform:translateX(-2916px)}66.15%{transform:translateX(-2997px)}66.27%{transform:translateX(-3321px)}66.28%{transform:translateX(-3402px)}to{transform:translateX(-3483px)}}.a{fill:#282d35}.f{fill:#71bef2}.g{fill:#d290e4}.h{fill:#a8cc8c}.i{fill:#b9c0cb;font-weight:700}.j{fill:#6f7783}.k{fill:#b9c0cb}.l{fill:#66c2cd}.m,.r{fill:#a8cc8c;font-weight:700}.r{fill:#e88388}.s{fill:#66c2cd;text-decoration:underline}</style><g font-size="1.67" font-family="Monaco,Consolas,Menlo,'Bitstream Vera Sans Mono','Powerline Symbols',monospace"><defs><symbol id="1"><text y="1.67" class="f">~</text></symbol><symbol id="2"><text y="1.67" class="g">❯</text></symbol><symbol id="3"><text y="1.67" class="g">❯</text><text x="2.004" y="1.67" class="h">movies</text></symbol><symbol id="4"><text y="1.67" class="h">✔</text><text x="2.004" y="1.67" class="i">Type</text><text x="7.014" y="1.67" class="i">a</text><text x="9.018" y="1.67" class="i">movie</text><text x="15.03" y="1.67" class="i">title:</text><text x="22.044" y="1.67" class="j">…</text><text x="24.048" y="1.67" class="k">Matrix</text></symbol><symbol id="5"><text y="1.67" class="l">?</text><text x="2.004" y="1.67" class="i">I</text><text x="4.008" y="1.67" class="i">found</text><text x="10.02" y="1.67" class="i">these</text><text x="16.032" y="1.67" class="i">movies:</text><text x="24.048" y="1.67" class="j">›</text><text x="26.052" y="1.67" class="j">-</text><text x="28.056" y="1.67" class="j">Use</text><text x="32.064" y="1.67" class="j">arrow-keys.</text><text x="44.088" y="1.67" class="j">Return</text><text x="51.102" y="1.67" class="j">to</text><text x="54.108" y="1.67" class="j">submit.</text></symbol><symbol id="6"><text x="3.006" y="1.67" class="k">The</text><text x="7.014" y="1.67" class="k">Matrix</text></symbol><symbol id="7"><text x="3.006" y="1.67" class="k">The</text><text x="7.014" y="1.67" class="k">Matrix</text><text x="14.028" y="1.67" class="k">Revolutions</text></symbol><symbol id="8"><text x="3.006" y="1.67" class="k">The</text><text x="7.014" y="1.67" class="k">Matrix</text><text x="14.028" y="1.67" class="k">Revisited</text></symbol><symbol id="9"><text x="3.006" y="1.67" class="k">Sexual</text><text x="10.02" y="1.67" class="k">Matrix</text></symbol><symbol id="10"><text x="3.006" y="1.67" class="k">The</text><text x="7.014" y="1.67" class="k">Matrix</text><text x="14.028" y="1.67" class="k">Reloaded</text></symbol><symbol id="11"><text y="1.67" class="h">✔</text><text x="2.004" y="1.67" class="i">I</text><text x="4.008" y="1.67" class="i">found</text><text x="10.02" y="1.67" class="i">these</text><text x="16.032" y="1.67" class="i">movies:</text><text x="24.048" y="1.67" class="j">›</text><text x="26.052" y="1.67" class="k">The</text><text x="30.06" y="1.67" class="k">Matrix</text><text x="37.074" y="1.67" class="k">Revisited</text></symbol><symbol id="12"><text y="1.67" class="m">The</text><text x="4.008" y="1.67" class="m">Matrix</text><text x="11.022" y="1.67" class="m">Revisited</text></symbol><symbol id="13"><text y="1.67" class="l">Release</text><text x="8.016" y="1.67" class="l">Date:</text><text x="14.028" y="1.67" class="k">2001-11-19</text></symbol><symbol id="14"><text y="1.67" class="l">Overview:</text><text x="10.02" y="1.67" class="k">The</text><text x="14.028" y="1.67" class="k">film</text><text x="19.038" y="1.67" class="k">goes</text><text x="24.048" y="1.67" class="k">behind</text><text x="31.062" y="1.67" class="k">the</text><text x="35.07" y="1.67" class="k">scenes</text><text x="42.084" y="1.67" class="k">of</text><text x="45.09" y="1.67" class="k">the</text><text x="49.098" y="1.67" class="k">1999</text><text x="54.108" y="1.67" class="k">sci-fi</text><text x="61.122" y="1.67" class="k">movie</text><text x="67.134" y="1.67" class="k">The</text><text x="71.142" y="1.67" class="k">Matrix.</text></symbol><symbol id="15"><text y="1.67" class="f">~</text><text x="4.008" y="1.67" fill="#dbab79">10s</text></symbol><symbol id="a"><path fill="transparent" d="M0 0h81v24H0z"/></symbol></defs><path class="a" d="M0 0h81v52.104H0z"/><g style="animation-duration:17.75132s;animation-iteration-count:infinite;animation-name:p;animation-timing-function:steps(1,end)"><svg width="3564"><svg><use xlink:href="#a"/></svg><svg x="81"><use xlink:href="#a"/></svg><svg x="162"><use xlink:href="#a"/><use xlink:href="#1" y="2.171"/></svg><svg x="243"><use xlink:href="#a"/><use xlink:href="#1" y="2.171"/></svg><svg x="324"><use xlink:href="#a"/><use xlink:href="#1" y="2.171"/><use xlink:href="#2" y="4.342"/></svg><svg x="405"><use xlink:href="#a"/><use xlink:href="#1" y="2.171"/><use xlink:href="#2" y="4.342"/></svg><svg x="486"><use xlink:href="#a"/><use xlink:href="#1" y="2.171"/><use xlink:href="#2" y="4.342"/></svg><svg x="567"><use xlink:href="#a"/><use xlink:href="#1" y="2.171"/><text y="6.012" class="g">❯</text><text x="2.004" y="6.012" class="r">m</text></svg><svg x="648"><use xlink:href="#a"/><use xlink:href="#1" y="2.171"/><text y="6.012" class="g">❯</text><text x="2.004" y="6.012" class="r">mo</text></svg><svg x="729"><use xlink:href="#a"/><use xlink:href="#1" y="2.171"/><text y="6.012" class="g">❯</text><text x="2.004" y="6.012" class="r">mov</text></svg><svg x="810"><use xlink:href="#a"/><use xlink:href="#1" y="2.171"/><text y="6.012" class="g">❯</text><text x="2.004" y="6.012" class="r">movi</text></svg><svg x="891"><use xlink:href="#a"/><use xlink:href="#1" y="2.171"/><text y="6.012" class="g">❯</text><text x="2.004" y="6.012" class="h">movie</text></svg><svg x="972"><use xlink:href="#a"/><use xlink:href="#1" y="2.171"/><use xlink:href="#3" y="4.342"/></svg><svg x="1053"><use xlink:href="#a"/><use xlink:href="#1" y="2.171"/><use xlink:href="#3" y="4.342"/></svg><svg x="1134"><use xlink:href="#a"/><use xlink:href="#1" y="2.171"/><use xlink:href="#3" y="4.342"/></svg><svg x="1215"><use xlink:href="#a"/><use xlink:href="#1" y="2.171"/><use xlink:href="#3" y="4.342"/></svg><svg x="1296"><use xlink:href="#a"/><use xlink:href="#1" y="2.171"/><use xlink:href="#3" y="4.342"/><text y="8.183" class="l">?</text><text x="2.004" y="8.183" class="i">Type</text><text x="7.014" y="8.183" class="i">a</text><text x="9.018" y="8.183" class="i">movie</text><text x="15.03" y="8.183" class="i">title:</text><text x="22.044" y="8.183" class="j">›</text></svg><svg x="1377"><use xlink:href="#a"/><use xlink:href="#1" y="2.171"/><use xlink:href="#3" y="4.342"/><text y="8.183" class="l">?</text><text x="2.004" y="8.183" class="i">Type</text><text x="7.014" y="8.183" class="i">a</text><text x="9.018" y="8.183" class="i">movie</text><text x="15.03" y="8.183" class="i">title:</text><text x="22.044" y="8.183" class="j">›</text><text x="24.048" y="8.183" class="k">M</text></svg><svg x="1458"><use xlink:href="#a"/><use xlink:href="#1" y="2.171"/><use xlink:href="#3" y="4.342"/><text y="8.183" class="l">?</text><text x="2.004" y="8.183" class="i">Type</text><text x="7.014" y="8.183" class="i">a</text><text x="9.018" y="8.183" class="i">movie</text><text x="15.03" y="8.183" class="i">title:</text><text x="22.044" y="8.183" class="j">›</text><text x="24.048" y="8.183" class="k">Ma</text></svg><svg x="1539"><use xlink:href="#a"/><use xlink:href="#1" y="2.171"/><use xlink:href="#3" y="4.342"/><text y="8.183" class="l">?</text><text x="2.004" y="8.183" class="i">Type</text><text x="7.014" y="8.183" class="i">a</text><text x="9.018" y="8.183" class="i">movie</text><text x="15.03" y="8.183" class="i">title:</text><text x="22.044" y="8.183" class="j">›</text><text x="24.048" y="8.183" class="k">Mat</text></svg><svg x="1620"><use xlink:href="#a"/><use xlink:href="#1" y="2.171"/><use xlink:href="#3" y="4.342"/><text y="8.183" class="l">?</text><text x="2.004" y="8.183" class="i">Type</text><text x="7.014" y="8.183" class="i">a</text><text x="9.018" y="8.183" class="i">movie</text><text x="15.03" y="8.183" class="i">title:</text><text x="22.044" y="8.183" class="j">›</text><text x="24.048" y="8.183" class="k">Matr</text></svg><svg x="1701"><use xlink:href="#a"/><use xlink:href="#1" y="2.171"/><use xlink:href="#3" y="4.342"/><text y="8.183" class="l">?</text><text x="2.004" y="8.183" class="i">Type</text><text x="7.014" y="8.183" class="i">a</text><text x="9.018" y="8.183" class="i">movie</text><text x="15.03" y="8.183" class="i">title:</text><text x="22.044" y="8.183" class="j">›</text><text x="24.048" y="8.183" class="k">Matri</text></svg><svg x="1782"><use xlink:href="#a"/><use xlink:href="#1" y="2.171"/><use xlink:href="#3" y="4.342"/><text y="8.183" class="l">?</text><text x="2.004" y="8.183" class="i">Type</text><text x="7.014" y="8.183" class="i">a</text><text x="9.018" y="8.183" class="i">movie</text><text x="15.03" y="8.183" class="i">title:</text><text x="22.044" y="8.183" class="j">›</text><text x="24.048" y="8.183" class="k">Matrix</text></svg><svg x="1863"><use xlink:href="#a"/><use xlink:href="#1" y="2.171"/><use xlink:href="#3" y="4.342"/><use xlink:href="#4" y="6.513"/></svg><svg x="1944"><use xlink:href="#a"/><use xlink:href="#1" y="2.171"/><use xlink:href="#3" y="4.342"/><use xlink:href="#4" y="6.513"/></svg><svg x="2025"><use xlink:href="#a"/><use xlink:href="#1" y="2.171"/><use xlink:href="#3" y="4.342"/><use xlink:href="#4" y="6.513"/></svg><svg x="2106"><use xlink:href="#a"/><use xlink:href="#1" y="2.171"/><use xlink:href="#3" y="4.342"/><use xlink:href="#4" y="6.513"/></svg><svg x="2187"><use xlink:href="#a"/><use xlink:href="#1" y="2.171"/><use xlink:href="#3" y="4.342"/><use xlink:href="#4" y="6.513"/><use xlink:href="#5" y="8.684"/></svg><svg x="2268"><use xlink:href="#a"/><use xlink:href="#1" y="2.171"/><use xlink:href="#3" y="4.342"/><use xlink:href="#4" y="6.513"/><use xlink:href="#5" y="8.684"/><use xlink:href="#6" y="10.855"/><text y="14.696" class="l">❯</text><text x="3.006" y="14.696" class="s">The</text><text x="7.014" y="14.696" class="s">Matrix</text><text x="14.028" y="14.696" class="s">Reloaded</text><use xlink:href="#7" y="15.197"/><use xlink:href="#8" y="17.368"/><use xlink:href="#9" y="19.539"/></svg><svg x="2349"><use xlink:href="#a"/><use xlink:href="#1" y="2.171"/><use xlink:href="#3" y="4.342"/><use xlink:href="#4" y="6.513"/></svg><svg x="2430"><use xlink:href="#a"/><use xlink:href="#1" y="2.171"/><use xlink:href="#3" y="4.342"/><use xlink:href="#4" y="6.513"/><use xlink:href="#5" y="8.684"/></svg><svg x="2511"><use xlink:href="#a"/><use xlink:href="#1" y="2.171"/><use xlink:href="#3" y="4.342"/><use xlink:href="#4" y="6.513"/><use xlink:href="#5" y="8.684"/><use xlink:href="#6" y="10.855"/><use xlink:href="#10" y="13.026"/><text y="16.867" class="l">❯</text><text x="3.006" y="16.867" class="s">The</text><text x="7.014" y="16.867" class="s">Matrix</text><text x="14.028" y="16.867" class="s">Revolutions</text><use xlink:href="#8" y="17.368"/><use xlink:href="#9" y="19.539"/></svg><svg x="2592"><use xlink:href="#a"/><use xlink:href="#1" y="2.171"/><use xlink:href="#3" y="4.342"/><use xlink:href="#4" y="6.513"/></svg><svg x="2673"><use xlink:href="#a"/><use xlink:href="#1" y="2.171"/><use xlink:href="#3" y="4.342"/><use xlink:href="#4" y="6.513"/><use xlink:href="#5" y="8.684"/><use xlink:href="#6" y="10.855"/><use xlink:href="#10" y="13.026"/><use xlink:href="#7" y="15.197"/><text y="19.038" class="l">❯</text><text x="3.006" y="19.038" class="s">The</text><text x="7.014" y="19.038" class="s">Matrix</text><text x="14.028" y="19.038" class="s">Revisited</text><use xlink:href="#9" y="19.539"/></svg><svg x="2754"><use xlink:href="#a"/><use xlink:href="#1" y="2.171"/><use xlink:href="#3" y="4.342"/><use xlink:href="#4" y="6.513"/></svg><svg x="2835"><use xlink:href="#a"/><use xlink:href="#1" y="2.171"/><use xlink:href="#3" y="4.342"/><use xlink:href="#4" y="6.513"/><use xlink:href="#11" y="8.684"/></svg><svg x="2916"><use xlink:href="#a"/><use xlink:href="#1" y="2.171"/><use xlink:href="#3" y="4.342"/><use xlink:href="#4" y="6.513"/><use xlink:href="#11" y="8.684"/><use xlink:href="#12" y="13.026"/><use xlink:href="#13" y="17.368"/><use xlink:href="#14" y="19.539"/></svg><svg x="2997"><use xlink:href="#a"/><use xlink:href="#1" y="2.171"/><use xlink:href="#3" y="4.342"/><use xlink:href="#4" y="6.513"/><use xlink:href="#11" y="8.684"/><use xlink:href="#12" y="13.026"/><use xlink:href="#13" y="17.368"/><use xlink:href="#14" y="19.539"/></svg><svg x="3078"><use xlink:href="#a"/><use xlink:href="#1" y="2.171"/><use xlink:href="#3" y="4.342"/><use xlink:href="#4" y="6.513"/><use xlink:href="#11" y="8.684"/><use xlink:href="#12" y="13.026"/><use xlink:href="#13" y="17.368"/><use xlink:href="#14" y="19.539"/><use xlink:href="#15" y="23.881"/></svg><svg x="3159"><use xlink:href="#a"/><use xlink:href="#1" y="2.171"/><use xlink:href="#3" y="4.342"/><use xlink:href="#4" y="6.513"/><use xlink:href="#11" y="8.684"/><use xlink:href="#12" y="13.026"/><use xlink:href="#13" y="17.368"/><use xlink:href="#14" y="19.539"/><use xlink:href="#15" y="23.881"/></svg><svg x="3240"><use xlink:href="#a"/><use xlink:href="#1" y="2.171"/><use xlink:href="#3" y="4.342"/><use xlink:href="#4" y="6.513"/><use xlink:href="#11" y="8.684"/><use xlink:href="#12" y="13.026"/><use xlink:href="#13" y="17.368"/><use xlink:href="#14" y="19.539"/><use xlink:href="#15" y="23.881"/><use xlink:href="#2" y="26.052"/></svg><svg x="3321"><use xlink:href="#a"/><use xlink:href="#1" y="2.171"/><use xlink:href="#3" y="4.342"/><use xlink:href="#4" y="6.513"/><use xlink:href="#11" y="8.684"/><use xlink:href="#12" y="13.026"/><use xlink:href="#13" y="17.368"/><use xlink:href="#14" y="19.539"/><use xlink:href="#15" y="23.881"/><use xlink:href="#2" y="26.052"/></svg><svg x="3402"><use xlink:href="#a"/><use xlink:href="#1" y="2.171"/><use xlink:href="#3" y="4.342"/><use xlink:href="#4" y="6.513"/><use xlink:href="#11" y="8.684"/><use xlink:href="#12" y="13.026"/><use xlink:href="#13" y="17.368"/><use xlink:href="#14" y="19.539"/><use xlink:href="#15" y="23.881"/><use xlink:href="#2" y="26.052"/></svg><svg x="3483"><use xlink:href="#a"/><use xlink:href="#1" y="2.171"/><use xlink:href="#3" y="4.342"/><use xlink:href="#4" y="6.513"/><use xlink:href="#11" y="8.684"/><use xlink:href="#12" y="13.026"/><use xlink:href="#13" y="17.368"/><use xlink:href="#14" y="19.539"/><use xlink:href="#15" y="23.881"/><use xlink:href="#2" y="26.052"/></svg></svg></g></g></svg></svg>